<svg xmlns="http://www.w3.org/2000/svg" style="display: none;">

  <!-- Code Icon -->
  <symbol id="icon-code" viewBox="0 0 24 24">
    <path d="M9.4 16.6L4.8 12l4.6-4.6L8 6l-6 6 6 6 1.4-1.4zm5.2 0l4.6-4.6-4.6-4.6L16 6l6 6-6 6-1.4-1.4z"></path>
  </symbol>

  <!-- LinkedIn Icon -->
  <symbol id="icon-linkedin" viewBox="0 0 50 50">
     <path d="M41,4H9C6.24,4,4,6.24,4,9v32c0,2.76,2.24,5,5,5h32c2.76,0,5-2.24,5-5V9C46,6.24,43.76,4,41,4z M17,20v19h-6V20H17z M11,14.47c0-1.4,1.2-2.47,3-2.47s2.93,1.07,3,2.47c0,1.4-1.12,2.53-3,2.53C12.2,17,11,15.87,11,14.47z M39,39h-6c0,0,0-9.26,0-10 c0-2-1-4-3.5-4.04h-0.08C27,24.96,26,27.02,26,29c0,0.91,0,10,0,10h-6V20h6v2.56c0,0,1.93-2.56,5.81-2.56 c3.97,0,7.19,2.73,7.19,8.26V39z"></path>
  </symbol>

  <!-- Sun Icon -->
  <symbol id="icon-sun" viewBox="0 0 24 24">
    <path d="M6.05 4.14l-.39-.39c-.39-.39-1.02-.38-1.4 0l-.01.01c-.39.39-.39 1.02 0 1.4l.39.39c.39.39 1.01.39 1.4 0l.01-.01c.39-.38.39-1.02 0-1.4zM3.01 10.5H1.99c-.55 0-.99.44-.99.99v.01c0 .55.44.99.99.99H3c.56.01 1-.43 1-.98v-.01c0-.56-.44-1-.99-1zm9-9.95H12c-.56 0-1 .44-1 .99v.96c0 .55.44.99.99.99H12c.56.01 1-.43 1-.98v-.97c0-.55-.44-.99-.99-.99zm7.74 3.21c-.39-.39-1.02-.39-1.41-.01l-.39.39c-.39.39-.39 1.02 0 1.4l.01.01c.39.39 1.02.39 1.4 0l.39-.39c.39-.39.39-1.01 0-1.4zm-1.81 15.1l.39.39c.39.39 1.02.39 1.41 0 .39-.39.39-1.02 0-1.41l-.39-.39c-.39-.39-1.02-.38-1.4 0-.4.4-.4 1.02-.01 1.41zM20 11.49v.01c0 .55.44.99.99.99H22c.55 0 .99-.44.99-.99v-.01c0-.55-.44-.99-.99-.99h-1.01c-.55 0-.99.44-.99.99zM12 5.5c-3.31 0-6 2.69-6 6s2.69 6 6 6 6-2.69 6-6-2.69-6-6-6zm-.01 16.95H12c.55 0 .99-.44.99-.99v-.96c0-.55-.44-.99-.99-.99h-.01c-.55 0-.99.44-.99.99v.96c0 .55.44.99.99.99zm-7.74-3.21c.39.39 1.02.39 1.41 0l.39-.39c.39-.39.38-1.02 0-1.4l-.01-.01a.9959.9959 0 00-1.41 0l-.39.39c-.38.4-.38 1.02.01 1.41z"></path>
  </symbol>

  <!-- Moon Icon -->
  <symbol id="icon-moon" viewBox="0 0 24 24">
     <path d="M10 2c-1.82 0-3.53.5-5 1.35C7.99 5.08 10 8.3 10 12s-2.01 6.92-5 8.65C6.47 21.5 8.18 22 10 22c5.52 0 10-4.48 10-10S15.52 2 10 2z"></path>
  </symbol>

  <!-- External Link Icon (TEMPORARY TEST) -->
  <symbol id="icon-external" viewBox="0 0 24 24">
    <rect x="2" y="2" width="20" height="20" fill="red" />
  </symbol>

</svg> 